<?xml version="1.0" encoding="UTF-8"?>
<svg width="600" height="400" viewBox="0 0 600 400" fill="none" xmlns="http://www.w3.org/2000/svg">
    <!-- Background Elements -->
    <circle cx="300" cy="200" r="180" fill="#F3F4F6" opacity="0.5"/>
    <circle cx="300" cy="200" r="150" fill="#E5E7EB" opacity="0.3"/>
    
    <!-- Shopping Cart -->
    <path d="M200 180 L400 180 L380 280 L220 280 Z" fill="#6366F1" stroke="#4F46E5" stroke-width="4"/>
    <circle cx="260" cy="300" r="15" fill="#4F46E5"/>
    <circle cx="340" cy="300" r="15" fill="#4F46E5"/>
    
    <!-- Shopping Items -->
    <rect x="240" y="200" width="40" height="60" rx="5" fill="#8B5CF6" opacity="0.8"/>
    <rect x="290" y="200" width="40" height="40" rx="5" fill="#8B5CF6" opacity="0.6"/>
    <rect x="340" y="200" width="30" height="50" rx="5" fill="#8B5CF6" opacity="0.7"/>
    
    <!-- AI Elements -->
    <circle cx="150" cy="150" r="20" fill="#6366F1" opacity="0.2"/>
    <circle cx="450" cy="150" r="25" fill="#6366F1" opacity="0.2"/>
    <circle cx="300" cy="100" r="15" fill="#6366F1" opacity="0.2"/>
    
    <!-- Connected Lines -->
    <path d="M150 150 L300 100 L450 150" stroke="#6366F1" stroke-width="2" stroke-dasharray="5,5"/>
    
    <!-- Stars/Sparkles -->
    <path d="M150 80 L155 90 L165 85 L155 80 L150 90 Z" fill="#6366F1"/>
    <path d="M450 90 L455 100 L465 95 L455 90 L450 100 Z" fill="#6366F1"/>
    <path d="M300 50 L305 60 L315 55 L305 50 L300 60 Z" fill="#6366F1"/>
</svg> 